<svg id="svg" version="1.1" xmlns="http://www.w3.org/2000/svg" xmlns:xlink="http://www.w3.org/1999/xlink" width="400" height="374.09326424870466" viewBox="0, 0, 400,374.09326424870466"><g id="svgg"><path id="path0" d="M185.591 22.845 C 152.796 24.824,117.170 38.751,93.172 58.974 C 78.687 71.181,68.320 82.721,58.922 97.100 C 51.093 109.078,43.639 124.816,40.226 136.576 C 39.957 137.502,39.313 139.691,38.796 141.441 C 36.726 148.435,34.508 159.545,33.510 167.914 L 33.276 169.878 93.133 169.878 L 152.990 169.878 153.249 169.036 C 154.524 164.888,159.240 157.732,163.558 153.394 C 182.556 134.310,214.760 135.696,231.700 156.327 C 235.228 160.623,239.476 167.783,239.476 169.432 C 239.476 169.776,253.212 169.878,299.345 169.878 C 347.711 169.878,359.214 169.786,359.214 169.400 C 359.214 168.630,357.807 159.127,357.179 155.659 C 354.280 139.640,346.987 119.533,339.429 106.719 C 338.786 105.629,338.260 104.663,338.260 104.572 C 338.260 104.294,334.109 97.665,331.941 94.481 C 307.701 58.882,270.712 34.210,228.999 25.816 C 214.661 22.931,200.368 21.953,185.591 22.845 " stroke="none" fill="#eb1b23" fill-rule="evenodd"></path><path id="path1" d="M182.413 11.953 C 178.103 12.314,168.726 13.439,168.055 13.675 C 167.773 13.775,166.089 14.105,164.313 14.410 C 158.696 15.373,147.018 18.177,144.995 19.047 C 144.584 19.224,142.816 19.822,141.066 20.375 C 137.188 21.601,131.726 23.659,126.660 25.803 C 103.325 35.680,79.174 53.707,62.488 73.703 C 61.562 74.813,60.372 76.237,59.842 76.869 C 49.427 89.297,37.206 110.978,31.988 126.286 C 31.707 127.109,31.116 128.793,30.675 130.028 C 29.618 132.986,28.699 136.090,27.132 142.002 C 25.463 148.294,25.595 147.718,24.730 152.479 C 23.089 161.509,22.759 163.987,22.064 172.470 C 16.471 240.811,51.708 305.894,112.442 339.397 C 115.215 340.927,125.629 346.118,125.924 346.118 C 126.043 346.118,126.847 346.434,127.710 346.820 C 132.594 349.006,143.994 353.016,149.111 354.349 C 150.552 354.724,152.993 355.362,154.537 355.766 C 173.308 360.684,200.624 362.112,219.832 359.180 C 221.272 358.960,223.966 358.551,225.819 358.271 C 229.759 357.674,235.071 356.559,239.289 355.443 C 240.935 355.008,242.956 354.490,243.779 354.294 C 249.822 352.849,264.540 347.217,272.778 343.196 C 307.836 326.083,335.897 298.132,353.236 263.050 C 383.902 201.004,374.474 125.632,329.457 72.941 C 325.217 67.978,315.097 57.770,310.758 54.078 C 309.111 52.678,307.343 51.171,306.829 50.730 C 305.036 49.194,296.893 43.187,294.107 41.344 C 292.563 40.324,291.216 39.394,291.113 39.277 C 290.898 39.035,285.882 36.030,282.202 33.939 C 279.516 32.414,268.018 26.665,266.205 25.941 C 265.602 25.700,263.845 24.968,262.301 24.314 C 259.315 23.049,258.316 22.685,251.263 20.296 C 241.752 17.074,230.927 14.549,221.141 13.270 C 218.775 12.961,215.744 12.531,214.406 12.315 C 211.442 11.836,187.091 11.561,182.413 11.953 M205.987 22.827 C 223.322 23.814,241.143 27.765,257.063 34.150 C 289.767 47.268,317.374 70.591,336.120 100.940 C 337.297 102.846,338.260 104.480,338.260 104.572 C 338.260 104.663,338.786 105.629,339.429 106.719 C 346.987 119.533,354.280 139.640,357.179 155.659 C 357.807 159.127,359.214 168.630,359.214 169.400 C 359.214 169.786,347.711 169.878,299.345 169.878 C 253.212 169.878,239.476 169.776,239.476 169.432 C 239.476 169.186,238.858 167.713,238.103 166.158 C 225.359 139.925,192.863 131.805,168.797 148.841 C 162.556 153.259,155.136 162.896,153.249 169.036 L 152.990 169.878 93.133 169.878 L 33.276 169.878 33.510 167.914 C 34.508 159.545,36.726 148.435,38.796 141.441 C 39.313 139.691,39.957 137.502,40.226 136.576 C 43.639 124.816,51.093 109.078,58.922 97.100 C 68.320 82.721,78.687 71.181,93.172 58.974 C 122.684 34.105,165.140 20.502,205.987 22.827 M203.742 153.207 C 213.655 155.507,222.768 162.788,226.714 171.562 C 227.177 172.591,227.705 173.714,227.888 174.058 C 233.986 185.543,227.534 206.094,215.354 213.979 C 186.484 232.670,151.982 203.528,165.579 171.936 C 169.883 161.935,179.546 154.922,192.329 152.521 C 194.129 152.183,201.145 152.605,203.742 153.207 M153.998 204.358 C 169.062 240.081,221.907 240.555,238.230 205.112 L 239.637 202.056 299.512 202.150 L 359.387 202.245 359.289 203.929 C 358.088 224.523,347.702 253.616,333.770 275.407 C 331.901 278.330,325.042 287.797,324.017 288.868 C 323.722 289.177,322.219 290.945,320.678 292.797 C 301.710 315.600,272.263 334.658,242.657 343.293 C 206.875 353.730,162.055 351.162,132.273 336.970 C 131.656 336.675,130.309 336.073,129.280 335.630 C 124.709 333.665,115.011 328.608,111.506 326.363 C 74.097 302.398,50.984 272.341,38.793 231.805 C 36.507 224.202,33.302 207.461,33.302 203.120 L 33.302 202.056 93.205 202.150 L 153.107 202.245 153.998 204.358 " stroke="none" fill="#050505" fill-rule="evenodd"></path><path id="path2" d="M0.000 187.091 L 0.000 374.181 200.000 374.181 L 400.000 374.181 400.000 187.091 L 400.000 0.000 200.000 0.000 L 0.000 0.000 0.000 187.091 M205.239 11.226 C 211.003 11.555,220.973 12.534,222.638 12.935 C 223.152 13.059,225.005 13.388,226.754 13.667 C 232.385 14.564,243.222 17.135,247.147 18.506 C 247.970 18.794,249.991 19.456,251.637 19.978 C 255.646 21.250,257.760 22.000,259.177 22.655 C 259.826 22.954,260.474 23.199,260.617 23.199 C 260.761 23.199,261.409 23.437,262.058 23.728 C 262.706 24.019,264.920 24.979,266.978 25.861 C 290.596 35.990,313.435 53.189,330.802 73.926 C 336.322 80.516,342.580 89.214,345.726 94.668 C 346.616 96.211,347.563 97.727,347.828 98.037 C 348.094 98.346,350.099 102.108,352.284 106.396 C 359.682 120.915,364.582 134.681,367.821 150.047 C 372.344 171.502,372.685 194.967,368.792 217.025 C 361.233 259.871,337.672 298.382,302.526 325.343 C 279.859 342.731,251.019 355.097,223.948 359.035 C 222.095 359.305,219.401 359.699,217.961 359.911 C 206.777 361.555,185.698 361.560,174.743 359.919 C 173.405 359.719,170.711 359.321,168.756 359.035 C 155.893 357.152,139.367 352.450,128.458 347.569 C 127.595 347.182,126.777 346.866,126.641 346.866 C 125.648 346.866,108.531 337.951,104.771 335.475 C 93.672 328.167,93.988 328.387,88.870 324.435 C 76.007 314.504,61.502 299.368,53.170 287.184 C 52.466 286.155,51.193 284.303,50.342 283.068 C 40.749 269.159,30.744 247.028,26.914 231.244 C 26.689 230.318,26.178 228.213,25.779 226.567 C 20.927 206.569,19.665 180.527,22.652 162.021 C 23.753 155.200,24.710 149.850,25.063 148.550 C 25.259 147.830,25.861 145.388,26.403 143.124 C 26.944 140.861,27.726 137.914,28.140 136.576 C 29.365 132.615,31.456 126.343,31.820 125.538 C 32.006 125.126,32.572 123.695,33.078 122.357 C 35.556 115.805,38.829 108.847,43.478 100.243 C 47.414 92.962,57.628 78.475,63.690 71.577 C 71.008 63.251,81.730 53.089,88.494 48.070 C 89.317 47.459,90.159 46.829,90.364 46.669 C 90.570 46.509,91.749 45.626,92.984 44.706 C 94.219 43.787,95.398 42.907,95.603 42.752 C 96.166 42.327,102.052 38.454,104.397 36.967 C 110.173 33.302,119.004 28.732,127.409 25.057 C 127.820 24.877,129.252 24.293,130.589 23.761 C 131.927 23.228,133.358 22.653,133.770 22.484 C 135.703 21.690,138.872 20.565,141.254 19.827 C 142.694 19.380,144.546 18.782,145.370 18.497 C 147.522 17.753,155.426 15.711,158.279 15.163 C 159.616 14.905,161.384 14.517,162.208 14.300 C 163.031 14.082,164.630 13.793,165.762 13.658 C 166.894 13.522,168.410 13.262,169.130 13.079 C 175.022 11.589,194.263 10.601,205.239 11.226 M189.710 153.409 C 187.003 154.070,185.027 154.667,184.846 154.879 C 184.743 155.000,184.406 155.150,184.097 155.213 C 175.183 157.043,165.406 169.450,163.306 181.598 C 162.553 185.958,163.178 193.147,164.614 196.632 C 168.143 205.199,173.756 212.025,179.433 214.654 C 180.249 215.032,181.001 215.446,181.104 215.574 C 181.410 215.955,184.598 217.326,185.794 217.590 C 186.404 217.726,187.156 217.937,187.465 218.060 C 191.097 219.512,203.445 219.536,204.337 218.093 C 204.482 217.858,204.867 217.766,205.192 217.891 C 205.769 218.113,207.013 217.705,210.192 216.253 C 211.065 215.855,211.859 215.529,211.958 215.529 C 212.396 215.529,216.795 212.294,217.167 211.699 C 217.394 211.336,217.772 211.038,218.007 211.038 C 218.242 211.038,219.060 210.323,219.825 209.448 C 220.589 208.573,221.672 207.353,222.230 206.735 C 223.737 205.070,226.294 200.825,226.836 199.088 C 227.097 198.252,227.423 197.568,227.561 197.568 C 227.698 197.568,227.929 196.852,228.073 195.978 C 228.217 195.103,228.527 194.151,228.761 193.862 C 229.345 193.141,229.350 179.180,228.767 178.449 C 228.537 178.160,228.231 177.271,228.087 176.474 C 227.943 175.677,227.676 174.751,227.494 174.416 C 227.311 174.081,226.822 173.050,226.406 172.123 C 225.305 169.675,224.313 168.053,223.026 166.599 C 222.401 165.894,221.890 165.172,221.890 164.996 C 221.890 164.634,216.995 159.775,216.630 159.775 C 216.500 159.775,215.904 159.354,215.306 158.840 C 214.708 158.325,213.630 157.643,212.909 157.325 C 212.189 157.007,211.347 156.586,211.038 156.389 C 210.730 156.193,210.056 155.860,209.542 155.651 C 209.027 155.441,208.269 155.120,207.858 154.937 C 204.273 153.342,193.648 152.448,189.710 153.409 M33.792 204.584 C 36.725 232.297,51.608 268.852,66.781 285.609 C 67.301 286.184,67.727 286.773,67.728 286.919 C 67.728 287.065,68.243 287.774,68.871 288.494 C 69.499 289.214,70.551 290.467,71.208 291.278 C 74.841 295.756,87.020 307.996,90.227 310.391 C 90.509 310.602,92.170 311.964,93.920 313.418 C 95.669 314.873,99.036 317.431,101.403 319.103 C 103.770 320.774,105.875 322.279,106.080 322.447 C 106.286 322.615,107.886 323.582,109.635 324.595 C 111.384 325.608,112.900 326.544,113.003 326.675 C 113.400 327.180,124.774 333.063,129.467 335.191 C 133.269 336.915,139.095 339.222,142.376 340.302 C 144.022 340.844,145.706 341.434,146.118 341.613 C 146.529 341.793,147.203 342.019,147.615 342.115 C 148.026 342.212,150.131 342.796,152.292 343.413 C 158.870 345.291,164.912 346.596,171.001 347.452 C 173.162 347.756,175.893 348.159,177.070 348.348 C 184.889 349.604,208.960 349.609,215.570 348.355 C 216.562 348.167,218.853 347.832,220.661 347.612 C 226.851 346.856,242.264 343.242,246.586 341.532 C 246.894 341.410,247.820 341.118,248.644 340.884 C 250.148 340.455,252.124 339.718,254.313 338.771 C 254.961 338.490,255.635 338.254,255.810 338.247 C 255.984 338.240,256.801 337.909,257.624 337.512 C 258.447 337.114,259.265 336.783,259.441 336.776 C 260.005 336.754,274.613 329.741,275.023 329.296 C 275.126 329.184,276.178 328.587,277.361 327.970 C 278.543 327.353,279.512 326.721,279.512 326.567 C 279.513 326.413,279.754 326.286,280.048 326.286 C 280.342 326.286,280.805 326.070,281.077 325.806 C 281.349 325.542,282.371 324.861,283.349 324.293 C 284.326 323.726,285.126 323.118,285.126 322.943 C 285.126 322.769,285.505 322.530,285.968 322.413 C 286.779 322.209,287.340 321.840,289.611 320.019 C 290.188 319.556,290.810 319.177,290.993 319.177 C 291.176 319.177,291.826 318.752,292.436 318.233 C 293.046 317.714,294.643 316.494,295.984 315.520 C 297.325 314.547,299.009 313.217,299.726 312.563 C 301.368 311.067,302.235 310.334,304.269 308.724 C 306.392 307.045,319.925 293.385,319.925 292.922 C 319.925 292.726,320.743 291.691,321.744 290.623 C 323.285 288.977,324.741 287.152,328.366 282.320 C 330.247 279.813,333.022 275.804,333.022 275.593 C 333.022 275.457,333.779 274.283,334.705 272.985 C 335.631 271.687,336.389 270.504,336.389 270.356 C 336.389 270.208,336.721 269.622,337.126 269.052 C 337.532 268.483,337.756 267.909,337.625 267.778 C 337.494 267.647,337.573 267.540,337.799 267.540 C 338.026 267.540,338.425 266.950,338.685 266.230 C 338.946 265.510,339.266 264.920,339.397 264.920 C 339.627 264.920,341.628 261.076,341.628 260.634 C 341.628 260.514,342.018 259.787,342.495 259.020 C 345.698 253.865,353.976 231.746,353.976 228.343 C 353.976 227.757,354.143 227.111,354.347 226.907 C 354.551 226.703,354.874 225.785,355.064 224.868 C 355.255 223.950,355.745 221.852,356.154 220.206 C 356.562 218.559,357.093 215.613,357.332 213.658 C 357.572 211.703,357.910 209.598,358.084 208.980 C 358.258 208.363,358.513 206.721,358.650 205.332 L 358.900 202.806 299.389 202.806 L 239.878 202.806 238.490 205.706 C 228.796 225.960,204.256 237.055,183.689 230.485 C 182.419 230.079,181.203 229.747,180.986 229.747 C 180.292 229.747,171.801 225.646,170.889 224.870 C 170.642 224.660,169.180 223.560,167.641 222.425 C 166.102 221.291,164.179 219.654,163.368 218.788 C 162.557 217.921,161.754 217.254,161.583 217.306 C 161.412 217.357,161.272 217.156,161.272 216.859 C 161.272 216.562,160.978 216.097,160.617 215.825 C 160.257 215.553,159.794 215.059,159.588 214.729 C 158.263 212.599,156.563 210.290,156.320 210.290 C 156.163 210.290,156.034 210.037,156.034 209.729 C 156.034 209.420,155.906 209.167,155.751 209.167 C 155.595 209.167,155.249 208.620,154.981 207.951 C 154.713 207.283,154.085 205.851,153.584 204.771 L 152.674 202.806 93.139 202.806 L 33.604 202.806 33.792 204.584 " stroke="none" fill="#fbfbfb" fill-rule="evenodd"></path><path id="path3" d="M193.529 11.128 C 194.909 11.200,197.266 11.201,198.768 11.129 C 200.269 11.058,199.139 10.999,196.258 10.999 C 193.377 10.998,192.149 11.057,193.529 11.128 M183.817 11.498 C 184.588 11.579,185.851 11.579,186.623 11.498 C 187.395 11.417,186.763 11.351,185.220 11.351 C 183.676 11.351,183.045 11.417,183.817 11.498 M205.893 11.498 C 206.665 11.579,207.928 11.579,208.700 11.498 C 209.471 11.417,208.840 11.351,207.297 11.351 C 205.753 11.351,205.122 11.417,205.893 11.498 M170.346 12.980 C 170.706 13.074,171.296 13.074,171.656 12.980 C 172.016 12.886,171.721 12.809,171.001 12.809 C 170.281 12.809,169.986 12.886,170.346 12.980 M220.861 12.980 C 221.221 13.074,221.810 13.074,222.170 12.980 C 222.530 12.886,222.236 12.809,221.515 12.809 C 220.795 12.809,220.500 12.886,220.861 12.980 M162.395 14.219 C 161.654 14.456,161.615 14.518,162.208 14.518 C 162.619 14.518,163.377 14.384,163.891 14.219 C 164.632 13.982,164.671 13.919,164.079 13.919 C 163.667 13.919,162.909 14.054,162.395 14.219 M228.812 14.219 C 229.224 14.396,229.897 14.536,230.309 14.529 C 230.910 14.521,230.874 14.460,230.122 14.219 C 228.842 13.809,227.858 13.809,228.812 14.219 M155.659 15.733 C 155.250 16.010,155.401 16.045,156.221 15.861 C 157.597 15.554,157.895 15.340,156.938 15.347 C 156.543 15.350,155.968 15.524,155.659 15.733 M235.017 15.476 C 235.103 15.550,235.678 15.723,236.296 15.861 C 237.115 16.045,237.267 16.010,236.857 15.733 C 236.352 15.391,234.642 15.152,235.017 15.476 M256.688 21.828 C 256.688 21.924,257.232 22.193,257.896 22.424 C 258.560 22.656,258.939 22.691,258.738 22.503 C 258.312 22.104,256.688 21.569,256.688 21.828 M299.345 44.664 C 299.345 44.767,299.850 45.211,300.468 45.650 C 301.085 46.090,301.590 46.365,301.590 46.262 C 301.590 46.159,301.085 45.716,300.468 45.276 C 299.850 44.836,299.345 44.561,299.345 44.664 M81.361 53.976 L 80.262 55.192 81.478 54.093 C 82.612 53.068,82.866 52.760,82.577 52.760 C 82.513 52.760,81.965 53.307,81.361 53.976 M78.184 56.782 L 76.894 58.185 78.297 56.896 C 79.604 55.695,79.873 55.379,79.587 55.379 C 79.524 55.379,78.893 56.010,78.184 56.782 M313.938 56.688 C 314.636 57.409,315.292 57.998,315.395 57.998 C 315.498 57.998,315.011 57.409,314.312 56.688 C 313.614 55.968,312.959 55.379,312.856 55.379 C 312.753 55.379,313.240 55.968,313.938 56.688 M319.925 62.301 C 322.285 64.668,324.300 66.604,324.403 66.604 C 324.506 66.604,322.659 64.668,320.299 62.301 C 317.939 59.935,315.924 57.998,315.821 57.998 C 315.718 57.998,317.565 59.935,319.925 62.301 M66.604 68.288 C 65.695 69.214,65.036 69.972,65.139 69.972 C 65.242 69.972,66.070 69.214,66.978 68.288 C 67.887 67.362,68.547 66.604,68.444 66.604 C 68.341 66.604,67.513 67.362,66.604 68.288 M325.538 68.288 C 326.236 69.008,326.891 69.598,326.994 69.598 C 327.097 69.598,326.610 69.008,325.912 68.288 C 325.214 67.568,324.559 66.978,324.456 66.978 C 324.353 66.978,324.840 67.568,325.538 68.288 M356.621 115.809 C 356.621 116.015,356.862 116.604,357.156 117.119 C 357.450 117.633,357.691 117.886,357.691 117.680 C 357.691 117.474,357.450 116.885,357.156 116.370 C 356.862 115.856,356.621 115.603,356.621 115.809 M27.529 138.287 C 27.391 138.835,27.351 139.356,27.439 139.444 C 27.527 139.532,27.712 139.156,27.850 138.608 C 27.987 138.059,28.028 137.538,27.940 137.450 C 27.851 137.362,27.667 137.738,27.529 138.287 M365.254 140.318 C 365.254 140.627,365.398 141.216,365.575 141.628 C 365.778 142.099,365.897 142.169,365.897 141.815 C 365.897 141.506,365.752 140.917,365.575 140.505 C 365.373 140.033,365.254 139.964,365.254 140.318 M194.481 152.942 C 195.561 153.017,197.329 153.017,198.410 152.942 C 199.490 152.866,198.606 152.804,196.445 152.804 C 194.284 152.804,193.400 152.866,194.481 152.942 M207.671 154.753 C 207.671 155.005,209.614 155.711,209.800 155.526 C 209.885 155.441,209.440 155.193,208.812 154.974 C 208.184 154.755,207.671 154.655,207.671 154.753 M180.636 156.433 C 179.864 156.841,179.233 157.258,179.233 157.360 C 179.233 157.462,179.906 157.202,180.730 156.782 C 181.553 156.362,182.226 155.938,182.226 155.839 C 182.226 155.594,182.224 155.595,180.636 156.433 M210.664 156.140 C 210.973 156.449,211.646 156.825,212.161 156.975 C 213.350 157.323,213.082 157.056,211.413 156.228 C 210.402 155.727,210.231 155.707,210.664 156.140 M177.262 158.479 C 176.494 159.001,175.865 159.509,175.865 159.607 C 175.865 159.706,176.539 159.340,177.362 158.796 C 178.669 157.931,179.111 157.530,178.759 157.530 C 178.703 157.530,178.030 157.957,177.262 158.479 M172.487 162.675 L 170.065 165.201 172.591 162.780 C 173.980 161.448,175.117 160.311,175.117 160.254 C 175.117 159.979,174.736 160.329,172.487 162.675 M221.592 164.599 C 221.859 165.091,222.646 166.101,223.341 166.844 C 224.416 167.992,224.489 168.026,223.828 167.072 C 222.555 165.234,221.011 163.526,221.592 164.599 M22.179 165.762 C 22.179 166.688,22.252 167.067,22.341 166.604 C 22.430 166.141,22.430 165.384,22.341 164.920 C 22.252 164.457,22.179 164.836,22.179 165.762 M370.534 169.317 C 370.538 170.140,370.615 170.433,370.704 169.968 C 370.794 169.502,370.790 168.829,370.697 168.471 C 370.603 168.113,370.530 168.494,370.534 169.317 M224.523 168.569 C 224.524 168.775,224.870 169.364,225.291 169.878 C 225.799 170.500,225.926 170.563,225.669 170.065 C 225.038 168.845,224.520 168.168,224.523 168.569 M370.930 173.059 C 370.932 174.294,371.002 174.754,371.085 174.081 C 371.168 173.409,371.167 172.398,371.081 171.836 C 370.996 171.274,370.928 171.824,370.930 173.059 M226.958 173.340 C 227.098 173.803,227.366 174.346,227.555 174.547 C 227.743 174.748,227.707 174.369,227.476 173.705 C 227.002 172.346,226.564 172.037,226.958 173.340 M164.681 174.784 C 164.451 175.446,164.328 176.052,164.408 176.132 C 164.488 176.212,164.742 175.737,164.972 175.075 C 165.203 174.414,165.326 173.808,165.246 173.728 C 165.166 173.647,164.912 174.123,164.681 174.784 M21.423 175.678 C 21.427 176.501,21.503 176.794,21.593 176.329 C 21.682 175.863,21.679 175.190,21.585 174.832 C 21.492 174.474,21.419 174.855,21.423 175.678 M228.277 177.246 C 228.263 177.697,228.419 178.170,228.625 178.297 C 229.067 178.571,229.067 178.205,228.625 177.175 C 228.315 176.453,228.302 176.456,228.277 177.246 M371.319 181.478 C 371.319 183.227,371.383 183.943,371.462 183.068 C 371.541 182.194,371.541 180.762,371.462 179.888 C 371.383 179.013,371.319 179.729,371.319 181.478 M21.109 186.155 C 21.109 189.860,21.165 191.325,21.233 189.410 C 21.301 187.496,21.301 184.466,21.232 182.675 C 21.164 180.885,21.108 182.451,21.109 186.155 M229.515 185.968 C 229.515 188.335,229.576 189.303,229.650 188.120 C 229.724 186.936,229.724 185.000,229.650 183.817 C 229.576 182.633,229.515 183.601,229.515 185.968 M371.321 190.645 C 371.320 192.498,371.383 193.303,371.461 192.434 C 371.540 191.566,371.541 190.050,371.464 189.066 C 371.386 188.083,371.322 188.793,371.321 190.645 M21.423 196.632 C 21.427 197.456,21.503 197.748,21.593 197.283 C 21.682 196.817,21.679 196.144,21.585 195.786 C 21.492 195.428,21.419 195.809,21.423 196.632 M370.926 199.065 C 370.926 200.196,370.996 200.659,371.082 200.094 C 371.168 199.528,371.168 198.601,371.082 198.036 C 370.996 197.470,370.926 197.933,370.926 199.065 M227.033 198.410 C 226.932 198.873,226.718 199.588,226.555 200.000 C 226.033 201.326,226.710 200.384,227.308 198.952 C 227.626 198.191,227.736 197.568,227.551 197.568 C 227.366 197.568,227.133 197.947,227.033 198.410 M224.686 203.274 C 223.901 204.560,222.799 206.118,222.237 206.735 C 221.675 207.353,220.589 208.573,219.825 209.448 C 219.060 210.323,218.314 211.038,218.167 211.038 C 218.019 211.038,217.155 211.741,216.246 212.599 C 214.765 213.997,214.729 214.067,215.903 213.274 C 219.130 211.092,223.876 205.662,225.962 201.765 C 226.878 200.054,226.059 201.022,224.686 203.274 M370.534 202.993 C 370.538 203.817,370.615 204.109,370.704 203.644 C 370.794 203.178,370.790 202.505,370.697 202.147 C 370.603 201.789,370.530 202.170,370.534 202.993 M33.332 203.087 C 33.349 203.478,33.437 203.554,33.550 203.274 C 33.894 202.422,152.513 202.608,153.010 203.461 C 153.220 203.821,153.397 203.939,153.403 203.723 C 153.440 202.429,153.569 202.432,92.909 202.432 C 36.379 202.432,33.304 202.466,33.332 203.087 M239.476 202.713 C 239.476 202.867,266.320 202.950,299.130 202.898 C 355.754 202.807,358.793 202.835,358.956 203.459 C 359.086 203.956,359.138 203.911,359.171 203.274 L 359.214 202.432 299.345 202.432 C 266.417 202.432,239.476 202.558,239.476 202.713 M22.179 206.174 C 22.179 207.100,22.252 207.479,22.341 207.016 C 22.430 206.553,22.430 205.795,22.341 205.332 C 22.252 204.869,22.179 205.248,22.179 206.174 M154.548 206.754 C 154.531 207.353,155.435 209.161,155.753 209.165 C 155.907 209.166,156.034 209.343,156.034 209.558 C 156.034 209.773,156.469 210.404,157.002 210.961 C 157.820 211.817,157.771 211.654,156.688 209.916 C 155.983 208.784,155.215 207.521,154.983 207.109 C 154.750 206.698,154.555 206.538,154.548 206.754 M34.137 208.419 C 34.137 209.139,34.214 209.434,34.308 209.074 C 34.403 208.714,34.403 208.124,34.308 207.764 C 34.214 207.404,34.137 207.699,34.137 208.419 M172.482 209.635 C 174.033 211.287,174.369 211.584,174.369 211.303 C 174.369 211.243,173.569 210.443,172.591 209.526 L 170.814 207.858 172.482 209.635 M357.951 208.995 C 357.822 209.329,357.738 210.305,357.764 211.163 C 357.809 212.658,357.823 212.638,358.109 210.666 C 358.416 208.545,358.358 207.933,357.951 208.995 M369.404 212.161 C 369.404 212.881,369.481 213.176,369.575 212.816 C 369.669 212.456,369.669 211.866,369.575 211.506 C 369.481 211.146,369.404 211.441,369.404 212.161 M158.245 212.846 C 158.447 213.224,158.906 213.771,159.265 214.063 C 159.670 214.391,159.579 214.130,159.028 213.377 C 158.046 212.035,157.677 211.785,158.245 212.846 M178.859 214.616 C 178.859 214.696,179.364 215.022,179.981 215.341 C 180.599 215.661,181.104 215.786,181.104 215.620 C 181.104 215.454,180.599 215.128,179.981 214.895 C 179.364 214.662,178.859 214.536,178.859 214.616 M159.775 215.064 C 159.775 215.221,160.112 215.559,160.524 215.816 C 160.935 216.073,161.272 216.506,161.272 216.779 C 161.272 217.052,161.531 217.275,161.846 217.275 C 162.236 217.275,162.031 216.873,161.212 216.027 C 159.939 214.714,159.775 214.605,159.775 215.064 M207.109 217.600 C 206.174 218.050,206.143 218.102,206.922 217.912 C 207.983 217.653,209.174 217.045,208.606 217.054 C 208.400 217.057,207.727 217.302,207.109 217.600 M229.537 218.241 L 228.438 219.457 229.654 218.358 C 230.323 217.754,230.870 217.207,230.870 217.142 C 230.870 216.853,230.561 217.108,229.537 218.241 M186.529 218.148 C 187.559 218.590,187.926 218.590,187.652 218.148 C 187.525 217.942,187.052 217.785,186.601 217.800 C 185.811 217.825,185.808 217.838,186.529 218.148 M204.303 218.148 C 204.303 218.354,204.556 218.522,204.864 218.522 C 205.173 218.522,205.426 218.354,205.426 218.148 C 205.426 217.942,205.173 217.774,204.864 217.774 C 204.556 217.774,204.303 217.942,204.303 218.148 M164.128 219.557 C 164.718 220.127,165.622 220.913,166.137 221.305 C 166.651 221.696,166.267 221.230,165.284 220.269 C 164.300 219.308,163.396 218.522,163.275 218.522 C 163.154 218.522,163.537 218.988,164.128 219.557 M189.149 218.896 C 189.766 219.053,190.692 219.182,191.207 219.182 C 192.041 219.182,192.021 219.151,191.020 218.896 C 190.402 218.739,189.476 218.611,188.962 218.611 C 188.127 218.611,188.147 218.641,189.149 218.896 M196.258 219.270 L 192.891 219.503 195.884 219.541 C 197.530 219.562,199.719 219.448,200.748 219.288 C 203.122 218.918,201.450 218.912,196.258 219.270 M355.332 223.214 C 355.203 223.548,355.115 224.187,355.137 224.633 C 355.161 225.146,355.288 224.964,355.482 224.137 C 355.809 222.747,355.720 222.201,355.332 223.214 M171.001 224.814 C 171.001 224.992,171.422 225.329,171.936 225.563 C 172.451 225.798,172.872 225.928,172.872 225.854 C 172.872 225.779,172.451 225.442,171.936 225.105 C 171.422 224.767,171.001 224.637,171.001 224.814 M219.083 226.021 C 218.054 226.627,217.366 227.123,217.554 227.125 C 217.967 227.129,221.141 225.296,221.141 225.054 C 221.141 224.810,221.145 224.808,219.083 226.021 M354.439 226.669 C 354.184 227.209,353.987 228.165,354.000 228.793 C 354.020 229.700,354.136 229.520,354.568 227.914 C 355.177 225.649,355.131 225.203,354.439 226.669 M208.045 230.496 C 207.274 230.743,207.241 230.801,207.858 230.827 C 208.269 230.844,208.859 230.695,209.167 230.496 C 209.823 230.072,209.368 230.072,208.045 230.496 M190.552 231.876 C 190.912 231.970,191.501 231.970,191.862 231.876 C 192.222 231.782,191.927 231.705,191.207 231.705 C 190.486 231.705,190.192 231.782,190.552 231.876 M200.655 231.876 C 201.015 231.970,201.604 231.970,201.964 231.876 C 202.325 231.782,202.030 231.705,201.310 231.705 C 200.589 231.705,200.295 231.782,200.655 231.876 M194.679 232.268 C 195.663 232.345,197.178 232.344,198.047 232.266 C 198.915 232.187,198.110 232.124,196.258 232.125 C 194.406 232.126,193.695 232.191,194.679 232.268 M41.749 240.225 C 41.886 240.739,42.155 241.413,42.346 241.721 C 42.587 242.111,42.616 241.997,42.442 241.347 C 42.305 240.833,42.036 240.159,41.845 239.850 C 41.604 239.460,41.575 239.574,41.749 240.225 M346.927 249.408 C 346.300 250.784,346.420 251.078,347.098 249.827 C 347.414 249.242,347.603 248.695,347.518 248.609 C 347.432 248.523,347.166 248.883,346.927 249.408 M345.624 252.403 C 344.745 254.246,344.868 254.560,345.787 252.818 C 346.205 252.027,346.480 251.313,346.399 251.232 C 346.318 251.151,345.969 251.678,345.624 252.403 M344.127 255.770 C 343.248 257.614,343.372 257.927,344.291 256.185 C 344.708 255.394,344.983 254.681,344.902 254.600 C 344.821 254.519,344.473 255.046,344.127 255.770 M342.485 259.027 C 341.664 260.427,341.201 261.553,341.446 261.553 C 341.539 261.553,342.042 260.711,342.563 259.682 C 343.627 257.582,343.578 257.164,342.485 259.027 M39.850 265.295 C 40.170 265.912,40.515 266.417,40.618 266.417 C 40.721 266.417,40.544 265.912,40.225 265.295 C 39.905 264.677,39.560 264.172,39.457 264.172 C 39.354 264.172,39.531 264.677,39.850 265.295 M338.749 266.043 C 338.516 266.660,338.390 267.166,338.470 267.166 C 338.550 267.166,338.876 266.660,339.196 266.043 C 339.515 265.426,339.640 264.920,339.474 264.920 C 339.308 264.920,338.982 265.426,338.749 266.043 M54.069 267.166 C 54.388 267.783,54.734 268.288,54.837 268.288 C 54.940 268.288,54.763 267.783,54.443 267.166 C 54.124 266.548,53.779 266.043,53.676 266.043 C 53.573 266.043,53.750 266.548,54.069 267.166 M336.964 269.256 C 336.615 269.788,336.394 270.288,336.472 270.367 C 336.551 270.446,336.911 270.010,337.272 269.399 C 338.078 268.034,337.838 267.922,336.964 269.256 M333.755 274.297 C 333.306 274.926,333.002 275.503,333.079 275.579 C 333.155 275.656,333.596 275.141,334.058 274.435 C 335.101 272.844,334.865 272.737,333.755 274.297 M330.681 279.046 C 329.287 280.979,328.556 282.192,329.160 281.572 C 329.825 280.888,332.340 277.268,332.150 277.268 C 332.047 277.268,331.386 278.068,330.681 279.046 M64.393 282.975 C 65.061 283.952,65.670 284.752,65.745 284.752 C 66.000 284.752,65.151 283.450,64.161 282.320 C 63.416 281.470,63.473 281.629,64.393 282.975 M328.344 282.419 C 327.874 282.764,326.205 285.126,326.431 285.126 C 326.522 285.126,327.131 284.453,327.783 283.630 C 328.952 282.154,329.079 281.879,328.344 282.419 M322.544 289.683 C 321.413 290.945,320.350 292.246,320.182 292.574 C 319.828 293.268,322.955 289.920,324.079 288.400 C 325.283 286.773,324.769 287.203,322.544 289.683 M54.223 288.805 C 54.425 289.182,54.884 289.730,55.243 290.021 C 55.647 290.350,55.557 290.088,55.006 289.336 C 54.023 287.993,53.655 287.744,54.223 288.805 M74.649 295.603 C 75.871 296.838,76.955 297.848,77.058 297.848 C 77.161 297.848,76.245 296.838,75.023 295.603 C 73.801 294.369,72.718 293.358,72.615 293.358 C 72.512 293.358,73.427 294.369,74.649 295.603 M317.850 295.323 L 316.370 296.913 317.961 295.434 C 319.440 294.058,319.723 293.732,319.440 293.732 C 319.379 293.732,318.663 294.448,317.850 295.323 M311.952 301.451 C 307.999 305.382,307.354 306.080,307.677 306.080 C 307.731 306.080,309.791 304.060,312.254 301.590 C 314.718 299.121,316.642 297.100,316.530 297.100 C 316.418 297.100,314.358 299.058,311.952 301.451 M80.815 302.068 C 82.560 303.863,84.131 305.332,84.307 305.332 C 84.483 305.332,83.543 304.280,82.219 302.993 C 78.218 299.109,77.440 298.596,80.815 302.068 M328.321 300.935 L 327.222 302.152 328.438 301.053 C 329.107 300.448,329.654 299.901,329.654 299.836 C 329.654 299.547,329.345 299.802,328.321 300.935 M63.611 300.585 C 63.611 300.649,64.158 301.196,64.827 301.801 L 66.043 302.900 64.944 301.684 C 63.920 300.550,63.611 300.296,63.611 300.585 M67.337 304.677 C 68.255 305.655,69.054 306.455,69.114 306.455 C 69.395 306.455,69.098 306.119,67.446 304.568 L 65.669 302.900 67.337 304.677 M325.144 304.490 L 323.854 305.893 325.257 304.604 C 326.563 303.404,326.832 303.087,326.547 303.087 C 326.484 303.087,325.853 303.718,325.144 304.490 M86.623 307.577 C 87.637 308.606,88.550 309.448,88.653 309.448 C 88.756 309.448,88.011 308.606,86.997 307.577 C 85.984 306.548,85.070 305.706,84.967 305.706 C 84.864 305.706,85.609 306.548,86.623 307.577 M305.016 307.989 C 304.327 308.615,303.834 309.197,303.919 309.282 C 304.004 309.367,304.642 308.850,305.338 308.133 C 306.891 306.530,306.709 306.449,305.016 307.989 M301.380 311.173 L 299.532 312.898 301.497 311.325 C 303.251 309.921,303.716 309.448,303.344 309.448 C 303.280 309.448,302.396 310.224,301.380 311.173 M89.429 309.964 C 89.429 310.042,90.229 310.734,91.207 311.501 L 92.984 312.895 91.362 311.358 C 89.841 309.918,89.429 309.621,89.429 309.964 M76.707 314.125 C 77.825 315.257,78.824 316.183,78.927 316.183 C 79.030 316.183,78.199 315.257,77.081 314.125 C 75.964 312.993,74.965 312.067,74.862 312.067 C 74.759 312.067,75.589 312.993,76.707 314.125 M314.850 314.780 L 313.751 315.996 314.967 314.897 C 315.636 314.293,316.183 313.746,316.183 313.681 C 316.183 313.392,315.875 313.647,314.850 314.780 M294.219 316.686 C 293.561 317.130,292.929 317.718,292.816 317.993 C 292.702 318.267,293.283 317.958,294.106 317.306 C 296.179 315.665,296.241 315.324,294.219 316.686 M79.701 316.675 C 79.701 316.739,80.248 317.286,80.917 317.891 L 82.133 318.990 81.034 317.774 C 80.009 316.640,79.701 316.386,79.701 316.675 M289.812 319.916 C 289.444 320.322,288.829 320.754,288.445 320.876 C 288.060 320.998,287.746 321.263,287.746 321.465 C 287.746 321.667,288.503 321.311,289.429 320.674 C 290.355 320.036,291.113 319.439,291.113 319.346 C 291.113 318.937,290.426 319.238,289.812 319.916 M286.170 322.277 C 285.611 322.498,285.068 322.905,284.962 323.182 C 284.748 323.739,285.461 323.436,286.810 322.397 C 287.667 321.736,287.579 321.719,286.170 322.277 M282.226 324.872 C 281.763 325.095,281.384 325.425,281.384 325.604 C 281.384 325.783,281.805 325.653,282.320 325.316 C 283.692 324.417,283.644 324.188,282.226 324.872 M111.132 325.690 C 111.132 325.765,111.553 326.102,112.067 326.439 C 112.582 326.776,113.003 326.907,113.003 326.729 C 113.003 326.552,112.582 326.215,112.067 325.980 C 111.553 325.746,111.132 325.615,111.132 325.690 M114.874 327.951 C 114.874 328.054,115.379 328.399,115.996 328.718 C 116.614 329.038,117.119 329.215,117.119 329.112 C 117.119 329.009,116.614 328.664,115.996 328.344 C 115.379 328.025,114.874 327.848,114.874 327.951 M297.661 328.751 L 296.539 329.716 297.755 328.911 C 298.424 328.468,298.971 328.033,298.971 327.945 C 298.971 327.664,298.813 327.762,297.661 328.751 M118.616 330.046 C 119.913 330.927,120.653 331.184,119.738 330.436 C 119.224 330.015,118.634 329.669,118.428 329.668 C 118.223 329.667,118.307 329.837,118.616 330.046 M270.814 331.365 C 269.363 332.152,269.527 332.423,271.001 331.674 C 272.411 330.957,272.661 330.771,272.186 330.791 C 271.997 330.800,271.380 331.058,270.814 331.365 M120.892 331.290 C 121.277 331.635,123.480 332.647,123.480 332.479 C 123.480 332.264,121.405 331.151,121.004 331.151 C 120.857 331.151,120.806 331.213,120.892 331.290 M263.891 334.737 C 263.223 335.029,262.675 335.355,262.675 335.460 C 262.675 335.655,265.300 334.637,265.618 334.319 C 265.937 334.001,265.126 334.197,263.891 334.737 M254.537 338.646 C 253.284 339.150,253.518 339.405,254.818 338.952 C 255.435 338.737,255.940 338.493,255.940 338.411 C 255.940 338.189,255.485 338.265,254.537 338.646 M139.944 339.694 C 140.253 339.884,140.926 340.153,141.441 340.291 C 142.091 340.465,142.205 340.435,141.815 340.194 C 141.506 340.003,140.833 339.735,140.318 339.597 C 139.668 339.423,139.554 339.453,139.944 339.694 M143.686 340.958 C 143.789 341.060,144.458 341.340,145.174 341.582 C 145.889 341.824,146.310 341.861,146.109 341.664 C 145.908 341.468,145.239 341.187,144.621 341.040 C 144.004 340.894,143.583 340.857,143.686 340.958 M237.231 344.264 C 236.821 344.541,236.973 344.576,237.792 344.393 C 239.168 344.085,239.467 343.871,238.510 343.879 C 238.115 343.882,237.540 344.055,237.231 344.264 M158.840 345.370 C 159.252 345.546,159.841 345.691,160.150 345.691 C 160.503 345.691,160.434 345.572,159.963 345.370 C 159.551 345.193,158.962 345.048,158.653 345.048 C 158.299 345.048,158.368 345.167,158.840 345.370 M232.554 345.370 C 232.082 345.572,232.013 345.691,232.367 345.691 C 232.675 345.691,233.265 345.546,233.676 345.370 C 234.148 345.167,234.217 345.048,233.863 345.048 C 233.555 345.048,232.965 345.193,232.554 345.370 M181.389 349.002 C 181.854 349.091,182.528 349.088,182.886 348.994 C 183.243 348.901,182.862 348.827,182.039 348.831 C 181.216 348.836,180.923 348.912,181.389 349.002 M210.009 348.995 C 210.370 349.089,210.959 349.089,211.319 348.995 C 211.679 348.901,211.384 348.824,210.664 348.824 C 209.944 348.824,209.649 348.901,210.009 348.995 M185.699 349.387 C 186.683 349.464,188.198 349.463,189.066 349.385 C 189.935 349.306,189.130 349.243,187.278 349.244 C 185.426 349.245,184.715 349.309,185.699 349.387 M203.648 349.386 C 204.626 349.463,206.225 349.463,207.203 349.386 C 208.181 349.309,207.381 349.246,205.426 349.246 C 203.471 349.246,202.671 349.309,203.648 349.386 M194.121 349.763 C 195.416 349.836,197.436 349.836,198.611 349.762 C 199.787 349.688,198.728 349.628,196.258 349.628 C 193.789 349.629,192.827 349.690,194.121 349.763 M152.853 355.847 C 153.265 356.023,153.854 356.168,154.163 356.168 C 154.517 356.168,154.447 356.049,153.976 355.847 C 153.564 355.670,152.975 355.525,152.666 355.525 C 152.312 355.525,152.381 355.644,152.853 355.847 M238.541 355.847 C 238.069 356.049,238.000 356.168,238.354 356.168 C 238.662 356.168,239.252 356.023,239.663 355.847 C 240.135 355.644,240.204 355.525,239.850 355.525 C 239.542 355.525,238.952 355.670,238.541 355.847 M226.193 358.466 C 225.174 358.725,225.157 358.753,226.006 358.769 C 226.520 358.779,227.278 358.643,227.689 358.466 C 228.612 358.069,227.751 358.069,226.193 358.466 M173.905 359.853 C 174.371 359.943,175.044 359.939,175.402 359.845 C 175.760 359.752,175.379 359.679,174.556 359.683 C 173.732 359.687,173.440 359.764,173.905 359.853 M217.310 359.853 C 217.776 359.943,218.449 359.939,218.807 359.845 C 219.165 359.752,218.784 359.679,217.961 359.683 C 217.138 359.687,216.845 359.764,217.310 359.853 M176.707 360.221 C 177.067 360.315,177.657 360.315,178.017 360.221 C 178.377 360.126,178.082 360.049,177.362 360.049 C 176.642 360.049,176.347 360.126,176.707 360.221 M214.500 360.221 C 214.860 360.315,215.449 360.315,215.809 360.221 C 216.169 360.126,215.875 360.049,215.154 360.049 C 214.434 360.049,214.139 360.126,214.500 360.221 M187.938 360.979 C 188.507 361.065,189.348 361.063,189.809 360.974 C 190.269 360.886,189.804 360.815,188.775 360.818 C 187.746 360.821,187.369 360.893,187.938 360.979 M202.905 360.979 C 203.474 361.065,204.316 361.063,204.776 360.974 C 205.236 360.886,204.771 360.815,203.742 360.818 C 202.713 360.821,202.336 360.893,202.905 360.979 M193.935 361.363 C 195.333 361.435,197.522 361.435,198.799 361.362 C 200.077 361.289,198.934 361.230,196.258 361.231 C 193.583 361.231,192.537 361.291,193.935 361.363 " stroke="none" fill="#a3a3a3" fill-rule="evenodd"></path><path id="path4" d="M192.070 11.505 C 194.500 11.570,198.372 11.570,200.676 11.505 C 202.980 11.439,200.992 11.386,196.258 11.386 C 191.525 11.386,189.640 11.440,192.070 11.505 M183.073 11.868 C 183.642 11.954,184.484 11.952,184.944 11.863 C 185.405 11.774,184.939 11.704,183.910 11.707 C 182.881 11.709,182.505 11.782,183.073 11.868 M207.769 11.868 C 208.338 11.954,209.180 11.952,209.640 11.863 C 210.101 11.774,209.635 11.704,208.606 11.707 C 207.577 11.709,207.201 11.782,207.769 11.868 M174.841 12.616 C 175.410 12.703,176.252 12.700,176.712 12.611 C 177.173 12.523,176.707 12.452,175.678 12.455 C 174.649 12.458,174.273 12.530,174.841 12.616 M216.001 12.616 C 216.570 12.703,217.412 12.700,217.872 12.611 C 218.333 12.523,217.867 12.452,216.838 12.455 C 215.809 12.458,215.433 12.530,216.001 12.616 M226.411 13.982 C 226.497 14.058,227.240 14.222,228.064 14.348 C 229.107 14.506,229.334 14.473,228.812 14.236 C 228.094 13.911,226.089 13.699,226.411 13.982 M152.105 16.838 C 151.633 17.041,151.564 17.160,151.918 17.160 C 152.226 17.160,152.816 17.015,153.227 16.838 C 153.699 16.635,153.768 16.517,153.414 16.517 C 153.106 16.517,152.516 16.661,152.105 16.838 M243.779 17.961 C 244.191 18.138,244.780 18.282,245.089 18.282 C 245.443 18.282,245.373 18.163,244.902 17.961 C 244.490 17.784,243.901 17.639,243.592 17.639 C 243.238 17.639,243.308 17.758,243.779 17.961 M139.008 20.780 C 138.073 21.231,138.042 21.283,138.821 21.092 C 139.882 20.833,141.073 20.226,140.505 20.234 C 140.299 20.237,139.626 20.483,139.008 20.780 M252.198 20.517 C 252.507 20.708,253.181 20.976,253.695 21.114 C 254.345 21.288,254.459 21.258,254.069 21.017 C 253.761 20.827,253.087 20.558,252.572 20.420 C 251.922 20.246,251.808 20.276,252.198 20.517 M90.538 46.800 L 89.242 47.949 90.645 46.942 C 91.885 46.053,92.289 45.650,91.941 45.650 C 91.882 45.650,91.250 46.167,90.538 46.800 M87.139 49.421 L 85.500 50.946 87.278 49.529 C 88.255 48.749,89.055 48.062,89.055 48.003 C 89.055 47.715,88.647 48.017,87.139 49.421 M312.067 55.192 C 312.765 55.912,313.421 56.501,313.524 56.501 C 313.627 56.501,313.140 55.912,312.442 55.192 C 311.743 54.471,311.088 53.882,310.985 53.882 C 310.882 53.882,311.369 54.471,312.067 55.192 M78.932 56.408 L 77.643 57.811 79.046 56.522 C 80.352 55.321,80.621 55.005,80.335 55.005 C 80.273 55.005,79.641 55.636,78.932 56.408 M319.738 62.488 C 322.201 64.958,324.301 66.978,324.404 66.978 C 324.507 66.978,322.575 64.958,320.112 62.488 C 317.649 60.019,315.550 57.998,315.447 57.998 C 315.344 57.998,317.275 60.019,319.738 62.488 M72.210 62.769 L 68.288 66.791 72.311 62.869 C 76.047 59.226,76.503 58.746,76.233 58.746 C 76.178 58.746,74.368 60.557,72.210 62.769 M66.025 69.317 L 64.546 70.907 66.137 69.428 C 67.011 68.615,67.727 67.899,67.727 67.838 C 67.727 67.555,67.401 67.838,66.025 69.317 M327.035 70.159 C 327.733 70.879,328.388 71.469,328.491 71.469 C 328.594 71.469,328.107 70.879,327.409 70.159 C 326.711 69.439,326.055 68.849,325.952 68.849 C 325.849 68.849,326.336 69.439,327.035 70.159 M63.358 72.311 C 62.941 72.774,62.466 73.405,62.302 73.714 C 61.986 74.309,62.072 74.228,63.588 72.498 C 64.084 71.932,64.405 71.469,64.303 71.469 C 64.200 71.469,63.774 71.848,63.358 72.311 M336.404 81.724 C 337.107 82.703,337.844 83.604,338.042 83.726 C 338.239 83.848,337.825 83.147,337.122 82.168 C 336.419 81.189,335.682 80.288,335.485 80.166 C 335.287 80.044,335.701 80.745,336.404 81.724 M350.795 104.397 C 351.114 105.014,351.460 105.519,351.563 105.519 C 351.666 105.519,351.489 105.014,351.169 104.397 C 350.850 103.779,350.505 103.274,350.402 103.274 C 350.299 103.274,350.476 103.779,350.795 104.397 M358.903 122.002 C 359.122 122.630,359.370 123.074,359.455 122.990 C 359.640 122.804,358.934 120.861,358.682 120.861 C 358.584 120.861,358.684 121.374,358.903 122.002 M31.473 126.889 C 31.242 127.550,31.119 128.157,31.199 128.237 C 31.279 128.317,31.533 127.841,31.764 127.180 C 31.994 126.519,32.117 125.912,32.037 125.832 C 31.957 125.752,31.703 126.228,31.473 126.889 M361.300 128.344 C 361.437 128.859,361.706 129.532,361.897 129.841 C 362.138 130.231,362.167 130.117,361.993 129.467 C 361.856 128.952,361.587 128.279,361.396 127.970 C 361.155 127.580,361.126 127.694,361.300 128.344 M364.131 136.950 C 364.131 137.259,364.276 137.848,364.453 138.260 C 364.655 138.732,364.774 138.801,364.774 138.447 C 364.774 138.138,364.630 137.549,364.453 137.138 C 364.250 136.666,364.131 136.597,364.131 136.950 M26.032 145.022 C 25.895 145.570,25.854 146.091,25.942 146.179 C 26.031 146.268,26.215 145.891,26.353 145.343 C 26.491 144.794,26.531 144.274,26.443 144.185 C 26.355 144.097,26.170 144.474,26.032 145.022 M366.761 147.240 C 366.755 147.652,366.895 148.326,367.072 148.737 C 367.482 149.691,367.482 148.707,367.072 147.428 C 366.831 146.675,366.770 146.639,366.761 147.240 M194.679 152.567 C 195.663 152.645,197.178 152.644,198.047 152.565 C 198.915 152.487,198.110 152.424,196.258 152.425 C 194.406 152.426,193.695 152.490,194.679 152.567 M190.926 152.924 C 191.286 153.018,191.876 153.018,192.236 152.924 C 192.596 152.830,192.301 152.753,191.581 152.753 C 190.861 152.753,190.566 152.830,190.926 152.924 M205.051 153.733 C 205.360 153.914,206.118 154.171,206.735 154.305 C 207.454 154.460,207.656 154.429,207.297 154.218 C 206.988 154.038,206.230 153.780,205.613 153.647 C 204.894 153.492,204.692 153.523,205.051 153.733 M23.451 157.864 C 23.312 158.555,23.218 159.478,23.240 159.916 C 23.263 160.353,23.430 159.953,23.613 159.027 C 23.795 158.101,23.890 157.178,23.823 156.975 C 23.756 156.772,23.589 157.172,23.451 157.864 M218.028 160.634 C 219.105 161.621,220.854 163.389,221.916 164.563 C 222.978 165.737,223.503 166.193,223.083 165.575 C 222.310 164.437,218.217 160.389,216.828 159.387 C 216.411 159.086,216.951 159.647,218.028 160.634 M172.068 162.675 C 169.629 165.218,166.446 169.504,166.997 169.504 C 167.083 169.504,167.794 168.536,168.577 167.353 C 169.360 166.169,171.096 164.065,172.433 162.675 C 173.771 161.286,174.781 160.150,174.678 160.150 C 174.576 160.150,173.401 161.286,172.068 162.675 M369.576 162.956 C 369.691 164.191,369.848 165.271,369.925 165.357 C 370.176 165.635,369.986 162.988,369.672 161.833 C 369.472 161.095,369.439 161.480,369.576 162.956 M22.171 168.569 C 22.175 169.392,22.252 169.685,22.341 169.219 C 22.431 168.754,22.427 168.080,22.334 167.722 C 22.240 167.365,22.167 167.746,22.171 168.569 M224.845 168.569 C 225.476 169.789,225.994 170.466,225.992 170.065 C 225.990 169.860,225.645 169.270,225.224 168.756 C 224.716 168.135,224.589 168.072,224.845 168.569 M166.167 170.570 C 165.556 171.712,165.682 172.030,166.362 171.060 C 166.692 170.589,166.874 170.116,166.766 170.009 C 166.659 169.902,166.389 170.154,166.167 170.570 M21.822 172.498 C 21.822 173.835,21.890 174.383,21.973 173.714 C 22.056 173.045,22.056 171.950,21.973 171.282 C 21.890 170.613,21.822 171.160,21.822 172.498 M370.526 171.749 C 370.526 172.470,370.603 172.764,370.698 172.404 C 370.792 172.044,370.792 171.455,370.698 171.094 C 370.603 170.734,370.526 171.029,370.526 171.749 M227.922 175.125 C 228.488 176.801,228.807 177.126,228.464 175.678 C 228.318 175.061,228.037 174.391,227.840 174.190 C 227.643 173.989,227.680 174.410,227.922 175.125 M370.947 178.297 C 370.946 180.150,371.009 180.955,371.087 180.086 C 371.166 179.218,371.167 177.702,371.089 176.718 C 371.012 175.735,370.948 176.445,370.947 178.297 M21.423 178.297 C 21.427 179.121,21.503 179.413,21.593 178.948 C 21.682 178.482,21.679 177.809,21.585 177.451 C 21.492 177.093,21.419 177.474,21.423 178.297 M229.880 186.155 C 229.879 188.007,229.942 188.812,230.021 187.944 C 230.099 187.075,230.100 185.560,230.023 184.576 C 229.946 183.593,229.881 184.303,229.880 186.155 M162.511 186.155 C 162.513 187.390,162.583 187.850,162.666 187.178 C 162.749 186.505,162.748 185.495,162.662 184.932 C 162.577 184.370,162.509 184.920,162.511 186.155 M371.290 185.968 C 371.290 186.894,371.363 187.273,371.452 186.810 C 371.541 186.347,371.541 185.589,371.452 185.126 C 371.363 184.663,371.290 185.042,371.290 185.968 M229.424 190.833 C 229.391 191.347,229.276 192.189,229.170 192.703 L 228.978 193.639 229.380 192.718 C 229.601 192.211,229.715 191.369,229.634 190.847 L 229.485 189.897 229.424 190.833 M370.947 194.013 C 370.946 195.865,371.009 196.670,371.087 195.802 C 371.166 194.933,371.167 193.418,371.089 192.434 C 371.012 191.450,370.948 192.161,370.947 194.013 M21.423 194.013 C 21.427 194.836,21.503 195.129,21.593 194.664 C 21.682 194.198,21.679 193.525,21.585 193.167 C 21.492 192.809,21.419 193.190,21.423 194.013 M164.292 196.905 C 164.249 197.348,165.468 200.232,165.630 200.070 C 165.711 199.989,165.450 199.182,165.048 198.277 C 164.647 197.373,164.307 196.755,164.292 196.905 M21.818 199.626 C 21.821 200.861,21.890 201.321,21.974 200.648 C 22.057 199.976,22.055 198.965,21.970 198.403 C 21.885 197.841,21.816 198.391,21.818 199.626 M370.526 200.561 C 370.526 201.282,370.603 201.576,370.698 201.216 C 370.792 200.856,370.792 200.267,370.698 199.906 C 370.603 199.546,370.526 199.841,370.526 200.561 M166.698 202.432 C 167.017 203.050,167.363 203.555,167.465 203.555 C 167.568 203.555,167.391 203.050,167.072 202.432 C 166.753 201.815,166.407 201.310,166.304 201.310 C 166.202 201.310,166.379 201.815,166.698 202.432 M22.171 203.368 C 22.175 204.191,22.252 204.484,22.341 204.018 C 22.431 203.553,22.427 202.879,22.334 202.521 C 22.240 202.164,22.167 202.544,22.171 203.368 M92.760 202.338 C 139.730 202.414,152.525 202.534,152.971 202.901 C 153.435 203.284,153.503 203.267,153.351 202.806 C 153.187 202.311,146.163 202.245,93.140 202.243 L 33.115 202.242 92.760 202.338 M260.992 202.335 C 318.592 202.591,359.500 202.592,359.344 202.339 C 359.248 202.184,332.197 202.099,299.230 202.148 C 266.262 202.198,249.055 202.282,260.992 202.335 M153.441 203.742 C 153.441 203.948,153.682 204.537,153.976 205.051 C 154.270 205.566,154.510 205.819,154.510 205.613 C 154.510 205.407,154.270 204.818,153.976 204.303 C 153.682 203.789,153.441 203.536,153.441 203.742 M358.715 206.144 C 358.577 207.463,358.535 208.613,358.621 208.699 C 358.853 208.931,359.322 204.813,359.130 204.237 C 359.040 203.967,358.853 204.824,358.715 206.144 M169.174 206.174 C 170.279 207.863,174.550 212.135,176.239 213.240 C 177.431 214.019,177.415 213.985,176.052 212.864 C 174.136 211.286,171.128 208.278,169.550 206.361 C 168.428 204.999,168.394 204.982,169.174 206.174 M369.747 207.717 C 369.717 208.258,369.608 209.268,369.505 209.963 L 369.320 211.225 369.714 209.970 C 369.930 209.279,370.039 208.269,369.955 207.724 L 369.803 206.735 369.747 207.717 M219.832 209.843 C 218.597 211.031,216.997 212.472,216.277 213.047 C 215.557 213.622,215.331 213.913,215.776 213.693 C 216.580 213.295,222.621 207.709,222.264 207.693 C 222.161 207.689,221.066 208.656,219.832 209.843 M34.139 210.290 C 34.139 210.804,34.268 211.731,34.425 212.348 C 34.679 213.349,34.710 213.370,34.710 212.535 C 34.710 212.021,34.582 211.094,34.425 210.477 C 34.170 209.476,34.139 209.456,34.139 210.290 M23.237 212.753 C 23.257 213.354,23.417 214.266,23.592 214.780 C 23.806 215.411,23.839 215.106,23.694 213.845 C 23.451 211.740,23.180 211.094,23.237 212.753 M159.771 214.401 C 160.421 215.221,161.148 216.013,161.387 216.161 C 161.626 216.308,161.172 215.637,160.379 214.669 C 159.586 213.701,158.859 212.909,158.764 212.909 C 158.668 212.909,159.122 213.580,159.771 214.401 M357.177 216.111 C 357.036 216.862,356.996 217.551,357.087 217.642 C 357.179 217.734,357.369 217.194,357.510 216.443 C 357.650 215.692,357.691 215.003,357.599 214.912 C 357.508 214.820,357.318 215.360,357.177 216.111 M179.607 215.322 C 179.607 215.425,180.112 215.771,180.730 216.090 C 181.347 216.409,181.852 216.586,181.852 216.483 C 181.852 216.380,181.347 216.035,180.730 215.716 C 180.112 215.396,179.607 215.219,179.607 215.322 M368.382 216.651 C 368.238 217.502,368.199 218.277,368.295 218.373 C 368.391 218.469,368.581 217.845,368.718 216.988 C 368.856 216.130,368.895 215.356,368.805 215.266 C 368.716 215.177,368.525 215.800,368.382 216.651 M228.902 218.261 C 227.716 219.498,226.799 220.563,226.865 220.628 C 226.930 220.693,228.063 219.657,229.383 218.325 C 230.704 216.993,231.620 215.927,231.420 215.957 C 231.221 215.987,230.087 217.024,228.902 218.261 M162.320 217.243 C 162.747 218.058,163.843 219.109,164.002 218.856 C 164.052 218.775,163.602 218.204,163.002 217.587 C 162.261 216.823,162.042 216.714,162.320 217.243 M204.677 218.522 C 203.907 218.769,203.874 218.827,204.490 218.853 C 204.902 218.870,205.491 218.721,205.800 218.522 C 206.455 218.098,206.000 218.098,204.677 218.522 M164.640 219.461 C 164.640 219.757,166.570 221.395,168.539 222.768 C 169.378 223.354,169.645 223.474,169.130 223.034 C 165.692 220.094,164.640 219.257,164.640 219.461 M194.847 219.915 C 195.511 219.997,196.690 219.999,197.466 219.918 C 198.242 219.837,197.699 219.769,196.258 219.767 C 194.818 219.766,194.182 219.832,194.847 219.915 M356.080 221.562 C 355.949 222.220,355.911 222.827,355.995 222.912 C 356.080 222.996,356.266 222.536,356.408 221.890 C 356.550 221.243,356.588 220.636,356.493 220.540 C 356.398 220.445,356.212 220.905,356.080 221.562 M366.885 224.135 C 366.743 224.782,366.705 225.389,366.800 225.484 C 366.895 225.579,367.081 225.120,367.212 224.462 C 367.344 223.805,367.382 223.197,367.297 223.113 C 367.213 223.028,367.027 223.488,366.885 224.135 M171.936 225.084 C 172.782 225.770,176.631 227.776,176.052 227.229 C 175.847 227.035,174.668 226.336,173.433 225.676 C 172.198 225.016,171.525 224.750,171.936 225.084 M25.871 226.380 C 25.871 226.688,26.016 227.278,26.193 227.689 C 26.395 228.161,26.514 228.230,26.514 227.877 C 26.514 227.568,26.370 226.978,26.193 226.567 C 25.990 226.095,25.871 226.026,25.871 226.380 M354.564 227.716 C 354.426 228.265,354.386 228.785,354.474 228.874 C 354.562 228.962,354.747 228.585,354.884 228.037 C 355.022 227.489,355.062 226.968,354.974 226.879 C 354.886 226.791,354.701 227.168,354.564 227.716 M214.406 228.064 C 213.891 228.358,213.639 228.598,213.845 228.598 C 214.051 228.598,214.640 228.358,215.154 228.064 C 215.669 227.769,215.921 227.529,215.716 227.529 C 215.510 227.529,214.920 227.769,214.406 228.064 M185.968 230.870 C 186.483 231.035,187.240 231.170,187.652 231.170 C 188.245 231.170,188.206 231.107,187.465 230.870 C 186.950 230.705,186.193 230.570,185.781 230.570 C 185.189 230.570,185.227 230.633,185.968 230.870 M353.261 232.401 C 353.008 233.245,352.870 234.005,352.954 234.089 C 353.039 234.174,353.314 233.551,353.567 232.707 C 353.821 231.862,353.959 231.102,353.874 231.018 C 353.790 230.934,353.514 231.556,353.261 232.401 M194.307 231.895 C 195.498 231.970,197.350 231.969,198.423 231.894 C 199.496 231.818,198.522 231.757,196.258 231.758 C 193.994 231.759,193.117 231.821,194.307 231.895 M42.123 242.095 C 42.260 242.610,42.529 243.283,42.720 243.592 C 42.961 243.982,42.990 243.868,42.816 243.218 C 42.679 242.703,42.410 242.030,42.219 241.721 C 41.978 241.331,41.949 241.445,42.123 242.095 M348.030 247.376 C 347.800 248.037,347.677 248.643,347.757 248.723 C 347.837 248.803,348.091 248.328,348.321 247.667 C 348.552 247.005,348.675 246.399,348.595 246.319 C 348.515 246.239,348.261 246.714,348.030 247.376 M51.076 262.301 C 51.597 263.330,52.108 264.172,52.211 264.172 C 52.314 264.172,51.971 263.330,51.450 262.301 C 50.929 261.272,50.418 260.430,50.315 260.430 C 50.212 260.430,50.554 261.272,51.076 262.301 M353.288 262.879 C 352.661 264.254,352.781 264.548,353.459 263.297 C 353.775 262.713,353.964 262.165,353.879 262.079 C 353.793 261.994,353.527 262.353,353.288 262.879 M339.944 264.546 C 339.625 265.164,339.448 265.669,339.550 265.669 C 339.653 265.669,339.999 265.164,340.318 264.546 C 340.637 263.929,340.814 263.424,340.711 263.424 C 340.609 263.424,340.263 263.929,339.944 264.546 M52.947 265.669 C 53.266 266.286,53.611 266.791,53.714 266.791 C 53.817 266.791,53.640 266.286,53.321 265.669 C 53.002 265.051,52.656 264.546,52.553 264.546 C 52.450 264.546,52.627 265.051,52.947 265.669 M42.095 269.036 C 42.415 269.654,42.760 270.159,42.863 270.159 C 42.966 270.159,42.789 269.654,42.470 269.036 C 42.150 268.419,41.805 267.914,41.702 267.914 C 41.599 267.914,41.776 268.419,42.095 269.036 M333.058 275.981 C 332.626 276.714,332.442 277.208,332.649 277.080 C 333.055 276.830,334.269 274.649,334.004 274.649 C 333.916 274.649,333.490 275.249,333.058 275.981 M59.745 276.900 C 60.455 278.102,62.370 280.466,61.857 279.506 C 61.326 278.515,59.402 275.772,59.237 275.772 C 59.150 275.772,59.378 276.279,59.745 276.900 M63.577 282.444 C 63.779 282.821,64.238 283.369,64.597 283.660 C 65.002 283.989,64.911 283.727,64.360 282.975 C 63.378 281.632,63.009 281.383,63.577 282.444 M326.077 285.781 C 324.057 288.307,323.925 288.494,324.161 288.494 C 324.277 288.494,325.149 287.484,326.099 286.249 C 328.145 283.591,328.127 283.218,326.077 285.781 M66.779 286.607 C 67.722 287.832,68.679 288.950,68.905 289.089 C 69.131 289.229,68.438 288.226,67.365 286.861 C 66.291 285.495,65.335 284.378,65.239 284.378 C 65.142 284.378,65.836 285.381,66.779 286.607 M335.600 291.581 C 334.325 293.279,332.844 295.167,332.310 295.776 C 331.775 296.386,331.658 296.639,332.049 296.338 C 332.809 295.755,338.413 288.494,338.103 288.494 C 338.002 288.494,336.876 289.883,335.600 291.581 M56.493 291.476 C 56.929 292.087,57.476 292.705,57.709 292.850 C 57.943 292.994,57.662 292.494,57.086 291.739 C 55.835 290.099,55.364 289.890,56.493 291.476 M318.974 294.387 C 317.559 295.982,316.791 296.950,317.269 296.539 C 318.267 295.680,321.951 291.487,321.709 291.487 C 321.621 291.487,320.390 292.792,318.974 294.387 M74.836 296.165 C 75.954 297.297,76.953 298.223,77.056 298.223 C 77.159 298.223,76.328 297.297,75.210 296.165 C 74.093 295.033,73.094 294.107,72.991 294.107 C 72.888 294.107,73.718 295.033,74.836 296.165 M60.992 297.100 C 61.853 298.129,62.642 298.971,62.745 298.971 C 62.848 298.971,62.227 298.129,61.366 297.100 C 60.504 296.071,59.715 295.229,59.612 295.229 C 59.509 295.229,60.130 296.071,60.992 297.100 M312.247 301.684 L 308.513 305.519 312.348 301.784 C 314.457 299.730,316.183 298.004,316.183 297.949 C 316.183 297.678,315.716 298.122,312.247 301.684 M80.262 301.964 C 82.106 303.817,83.691 305.332,83.786 305.332 C 84.106 305.332,77.645 298.695,77.276 298.646 C 77.075 298.619,78.418 300.112,80.262 301.964 M328.695 300.187 L 327.596 301.403 328.812 300.304 C 329.481 299.700,330.028 299.152,330.028 299.088 C 330.028 298.799,329.719 299.054,328.695 300.187 M325.538 303.648 C 324.629 304.574,323.970 305.332,324.072 305.332 C 324.175 305.332,325.003 304.574,325.912 303.648 C 326.821 302.722,327.480 301.964,327.378 301.964 C 327.275 301.964,326.447 302.722,325.538 303.648 M66.978 304.022 C 67.677 304.743,68.332 305.332,68.435 305.332 C 68.538 305.332,68.051 304.743,67.353 304.022 C 66.655 303.302,65.999 302.713,65.896 302.713 C 65.793 302.713,66.280 303.302,66.978 304.022 M86.062 307.390 C 87.180 308.522,88.178 309.448,88.281 309.448 C 88.384 309.448,87.554 308.522,86.436 307.390 C 85.318 306.258,84.319 305.332,84.216 305.332 C 84.113 305.332,84.944 306.258,86.062 307.390 M319.918 309.729 L 315.996 313.751 320.019 309.829 C 322.231 307.672,324.041 305.862,324.041 305.806 C 324.041 305.536,323.562 305.993,319.918 309.729 M305.312 308.232 L 304.022 309.635 305.426 308.346 C 306.197 307.636,306.829 307.005,306.829 306.943 C 306.829 306.657,306.512 306.926,305.312 308.232 M302.524 310.488 C 301.906 311.048,300.912 311.887,300.316 312.353 C 299.719 312.819,299.300 313.270,299.385 313.354 C 299.469 313.439,300.547 312.601,301.780 311.493 C 303.014 310.384,303.938 309.476,303.835 309.474 C 303.732 309.472,303.142 309.928,302.524 310.488 M90.926 311.436 C 90.926 311.539,91.768 312.328,92.797 313.190 C 93.826 314.051,94.668 314.672,94.668 314.569 C 94.668 314.466,93.826 313.677,92.797 312.816 C 91.768 311.954,90.926 311.333,90.926 311.436 M313.551 315.716 L 311.506 317.867 313.658 315.822 C 315.656 313.922,315.981 313.564,315.703 313.564 C 315.644 313.564,314.676 314.532,313.551 315.716 M78.204 315.248 C 78.902 315.968,79.557 316.558,79.660 316.558 C 79.763 316.558,79.276 315.968,78.578 315.248 C 77.880 314.528,77.225 313.938,77.122 313.938 C 77.019 313.938,77.506 314.528,78.204 315.248 M96.096 315.742 C 97.576 317.052,100.655 319.292,100.655 319.058 C 100.655 318.968,99.350 317.937,97.755 316.768 C 96.160 315.600,95.413 315.138,96.096 315.742 M295.790 316.037 L 294.294 317.377 295.884 316.187 C 297.253 315.164,297.746 314.670,297.381 314.692 C 297.329 314.695,296.614 315.301,295.790 316.037 M309.708 319.002 C 309.130 319.510,308.806 319.925,308.988 319.925 C 309.169 319.925,309.713 319.504,310.196 318.990 C 311.315 317.799,311.068 317.805,309.708 319.002 M291.300 319.397 L 290.178 320.361 291.394 319.556 C 292.063 319.114,292.610 318.679,292.610 318.590 C 292.610 318.310,292.451 318.408,291.300 319.397 M285.404 323.261 C 283.866 324.246,283.653 324.594,285.009 323.904 C 285.665 323.571,286.306 323.129,286.434 322.921 C 286.734 322.436,286.645 322.465,285.404 323.261 M90.926 325.674 C 90.926 325.777,91.431 326.221,92.049 326.660 C 92.666 327.100,93.171 327.376,93.171 327.273 C 93.171 327.170,92.666 326.726,92.049 326.286 C 91.431 325.847,90.926 325.571,90.926 325.674 M113.003 327.202 C 113.003 327.305,113.508 327.651,114.125 327.970 C 114.743 328.289,115.248 328.466,115.248 328.363 C 115.248 328.261,114.743 327.915,114.125 327.596 C 113.508 327.277,113.003 327.100,113.003 327.202 M259.121 337.164 C 258.297 337.560,258.045 337.779,258.559 337.651 C 259.619 337.388,261.564 336.412,260.992 336.432 C 260.786 336.439,259.944 336.769,259.121 337.164 M284.284 336.977 C 282.886 337.736,282.971 338.052,284.378 337.325 C 284.995 337.005,285.500 336.664,285.500 336.567 C 285.500 336.326,285.460 336.339,284.284 336.977 M109.635 338.054 C 109.635 338.157,110.140 338.502,110.758 338.821 C 111.375 339.141,111.880 339.318,111.880 339.215 C 111.880 339.112,111.375 338.766,110.758 338.447 C 110.140 338.128,109.635 337.951,109.635 338.054 M255.940 338.447 C 255.426 338.741,255.173 338.982,255.379 338.982 C 255.585 338.982,256.174 338.741,256.688 338.447 C 257.203 338.153,257.456 337.912,257.250 337.912 C 257.044 337.912,256.455 338.153,255.940 338.447 M114.500 340.673 C 114.500 340.776,115.005 341.121,115.622 341.441 C 116.239 341.760,116.745 341.937,116.745 341.834 C 116.745 341.731,116.239 341.386,115.622 341.066 C 115.005 340.747,114.500 340.570,114.500 340.673 M117.867 342.563 C 118.382 342.857,118.971 343.098,119.177 343.098 C 119.383 343.098,119.130 342.857,118.616 342.563 C 118.101 342.269,117.512 342.028,117.306 342.028 C 117.100 342.028,117.353 342.269,117.867 342.563 M244.153 342.577 C 242.671 343.090,242.670 343.093,243.966 342.880 C 244.687 342.761,245.529 342.520,245.837 342.344 C 246.661 341.875,245.865 341.985,244.153 342.577 M147.989 342.750 C 148.400 342.927,148.990 343.072,149.298 343.072 C 149.652 343.072,149.583 342.953,149.111 342.750 C 148.700 342.573,148.110 342.429,147.802 342.429 C 147.448 342.429,147.517 342.548,147.989 342.750 M239.663 343.873 C 239.192 344.075,239.122 344.194,239.476 344.194 C 239.785 344.194,240.374 344.050,240.786 343.873 C 241.257 343.670,241.327 343.551,240.973 343.551 C 240.664 343.551,240.075 343.696,239.663 343.873 M156.221 344.945 C 156.632 345.125,157.558 345.379,158.279 345.510 C 159.178 345.673,159.354 345.645,158.840 345.420 C 158.428 345.240,157.502 344.986,156.782 344.855 C 155.883 344.692,155.707 344.720,156.221 344.945 M233.676 345.370 C 232.723 345.779,233.707 345.779,234.986 345.370 C 235.738 345.129,235.775 345.068,235.173 345.059 C 234.761 345.053,234.088 345.193,233.676 345.370 M162.582 346.492 C 162.993 346.669,163.667 346.809,164.079 346.803 C 164.680 346.794,164.643 346.733,163.891 346.492 C 162.612 346.082,161.628 346.082,162.582 346.492 M228.438 346.492 C 227.429 346.749,227.410 346.778,228.251 346.785 C 228.765 346.788,229.607 346.657,230.122 346.492 C 231.379 346.089,230.021 346.089,228.438 346.492 M168.569 347.582 C 168.980 347.747,170.412 347.980,171.749 348.100 C 173.397 348.247,173.759 348.218,172.872 348.010 C 170.912 347.552,167.694 347.232,168.569 347.582 M221.337 347.657 C 218.200 348.114,217.861 348.379,220.767 348.103 C 223.221 347.870,225.846 347.291,224.322 347.318 C 223.910 347.326,222.567 347.478,221.337 347.657 M178.952 348.995 C 179.312 349.089,179.902 349.089,180.262 348.995 C 180.622 348.901,180.327 348.824,179.607 348.824 C 178.887 348.824,178.592 348.901,178.952 348.995 M212.254 348.995 C 212.615 349.089,213.204 349.089,213.564 348.995 C 213.924 348.901,213.630 348.824,212.909 348.824 C 212.189 348.824,211.894 348.901,212.254 348.995 M258.746 349.312 C 257.811 349.762,257.780 349.814,258.559 349.624 C 259.620 349.364,260.811 348.757,260.243 348.765 C 260.037 348.768,259.364 349.014,258.746 349.312 M181.759 349.375 C 182.222 349.465,182.979 349.465,183.442 349.375 C 183.906 349.286,183.527 349.213,182.601 349.213 C 181.674 349.213,181.296 349.286,181.759 349.375 M209.452 349.376 C 209.918 349.465,210.591 349.462,210.949 349.368 C 211.307 349.275,210.926 349.202,210.103 349.206 C 209.280 349.210,208.987 349.286,209.452 349.376 M187.933 349.758 C 188.704 349.839,189.967 349.839,190.739 349.758 C 191.511 349.677,190.879 349.611,189.336 349.611 C 187.792 349.611,187.161 349.677,187.933 349.758 M201.777 349.758 C 202.549 349.839,203.812 349.839,204.584 349.758 C 205.355 349.677,204.724 349.611,203.181 349.611 C 201.637 349.611,201.006 349.677,201.777 349.758 M254.630 350.808 C 253.695 351.259,253.664 351.311,254.443 351.120 C 255.504 350.861,256.695 350.254,256.127 350.262 C 255.921 350.265,255.248 350.511,254.630 350.808 M149.486 354.724 C 149.897 354.901,150.571 355.041,150.982 355.035 C 151.584 355.026,151.547 354.965,150.795 354.724 C 149.516 354.314,148.532 354.314,149.486 354.724 M241.908 354.724 C 241.437 354.927,241.367 355.046,241.721 355.046 C 242.030 355.046,242.619 354.901,243.031 354.724 C 243.503 354.521,243.572 354.402,243.218 354.402 C 242.909 354.402,242.320 354.547,241.908 354.724 M230.870 357.343 C 230.118 357.584,230.081 357.645,230.683 357.654 C 231.094 357.660,231.768 357.520,232.180 357.343 C 233.133 356.934,232.149 356.934,230.870 357.343 M167.727 358.724 C 168.087 358.818,168.676 358.818,169.036 358.724 C 169.397 358.630,169.102 358.553,168.382 358.553 C 167.661 358.553,167.367 358.630,167.727 358.724 M222.077 358.840 C 220.521 359.236,222.052 359.254,223.948 358.862 C 225.206 358.601,225.266 358.552,224.322 358.553 C 223.704 358.554,222.694 358.683,222.077 358.840 M176.333 359.846 C 176.693 359.940,177.283 359.940,177.643 359.846 C 178.003 359.752,177.708 359.675,176.988 359.675 C 176.268 359.675,175.973 359.752,176.333 359.846 M214.874 359.846 C 215.234 359.940,215.823 359.940,216.183 359.846 C 216.543 359.752,216.249 359.675,215.529 359.675 C 214.808 359.675,214.514 359.752,214.874 359.846 M179.332 360.231 C 179.900 360.317,180.742 360.315,181.203 360.226 C 181.663 360.137,181.197 360.067,180.168 360.070 C 179.139 360.072,178.763 360.145,179.332 360.231 M211.693 360.227 C 212.156 360.316,212.914 360.316,213.377 360.227 C 213.840 360.137,213.461 360.064,212.535 360.064 C 211.609 360.064,211.230 360.137,211.693 360.227 M183.448 360.605 C 184.016 360.691,184.858 360.689,185.319 360.600 C 185.779 360.511,185.313 360.441,184.284 360.444 C 183.255 360.447,182.879 360.519,183.448 360.605 M207.577 360.601 C 208.040 360.690,208.798 360.690,209.261 360.601 C 209.724 360.512,209.345 360.439,208.419 360.439 C 207.493 360.439,207.114 360.512,207.577 360.601 M193.376 360.990 C 195.084 361.059,197.778 361.059,199.363 360.989 C 200.948 360.919,199.551 360.862,196.258 360.862 C 192.965 360.863,191.668 360.920,193.376 360.990 " stroke="none" fill="#747474" fill-rule="evenodd"></path></g></svg>